<svg
                version="1.1"
                id="Layer_1"
                xmlns="http://www.w3.org/2000/svg"
                xmlns:xlink="http://www.w3.org/1999/xlink"
                x="0px"
                y="0px"
                viewBox="0 0 61.7 60.7"
                style="enable-background: new 0 0 61.7 42.8"
                xml:space="preserve"
              >
                <g id="Cloud_3">
                  <g id="White_cloud_3">
                    <path
                      id="XMLID_24_"
                      class="white"
                      fill="#ffffff"
                      d="M47.2,42.8H7.9c-4.3,0-7.9-3.5-7.9-7.9l0,0C0,30.5,3.5,27,7.9,27h39.4c4.3,0,7.9,3.5,7.9,7.9 v0C55.1,39.2,51.6,42.8,47.2,42.8z"
                    />
                    <circle
                      id="XMLID_23_"
                      class="white"
                      fill="#ffffff"
                      cx="17.4"
                      cy="25.5"
                      r="9.3"
                    />
                    <circle
                      id="XMLID_22_"
                      class="white"
                      fill="#ffffff"
                      cx="34.5"
                      cy="23.9"
                      r="15.6"
                    />
                  </g>
                  <g id="Gray_cloud_3">
                  <path
                    id="XMLID_20_"
                    class="gray"
                    fill="#e0e0e0"
                    d="M55.7,25.1H34.4c-3.3,0-6-2.7-6-6v0c0-3.3,2.7-6,6-6h21.3c3.3,0,6,2.7,6,6v0 C61.7,22.4,59,25.1,55.7,25.1z"
                  />
                  <circle
                    id="XMLID_19_"
                    class="gray"
                    fill="#e0e0e0"
                    cx="46.7"
                    cy="13.4"
                    r="10.7"
                  />
                  </g>
                     <!-- Misty lines -->
                    <g id="Mist">
                       <rect fill="#cfd8dc" x="5" y="45" width="40" height="1.5" rx="0.5" />
                       <rect fill="#cfd8dc" x="10" y="48" width="30" height="1.5" rx="0.5" />
                       <rect fill="#cfd8dc" x="7" y="51" width="35" height="1.5" rx="0.5" />
                       <animateTransform
                         attributeName="transform"
                         attributeType="XML"
                         dur="6s"
                         keyTimes="0;0.5;1"
                         repeatCount="indefinite"
                         type="translate"
                         values="0;5;0"
                         calcMode="linear"
                       ></animateTransform>
                     </g>
                </g>
                
              </svg>