<svg
  version="1.1"
  xmlns="http://www.w3.org/2000/svg"
  xmlns:xlink="http://www.w3.org/1999/xlink"
  viewBox="0 0 60.7 60.7"
  xml:space="preserve"
>
  <!-- Sun -->
  <g>
    <!-- Sun Core -->
    <circle
      cx="30"
      cy="22.5"
      r="11"
      fill="#ffeb3b"
    />
    <!-- Sun Rays -->
    <g>
      <path
        fill="#ffeb3b"
        d="M30,9c-0.3,0-0.6-0.3-0.6-0.6v-7c0-0.3,0.3-0.6,0.6-0.6s0.6,0.3,0.6,0.6v7C30.6,8.7,30.3,9,30,9z"
      />
      <path
        fill="#ffeb3b"
        d="M30,36c-0.3,0-0.6,0.3-0.6,0.6v7c0,0.3,0.3,0.6,0.6,0.6s0.6-0.3,0.6-0.6v-7C30.6,36.3,30.3,36,30,36z"
      />
      <path
        fill="#ffeb3b"
        d="M13.5,22.5c0,0.3-0.3,0.6-0.6,0.6h-7c-0.3,0-0.6-0.3-0.6-0.6s0.3-0.6,0.6-0.6h7C13.2,21.9,13.5,22.2,13.5,22.5z"
      />
      <path
        fill="#ffeb3b"
        d="M46.5,22.5c0,0.3,0.3,0.6,0.6,0.6h7c0.3,0,0.6-0.3,0.6-0.6s-0.3-0.6-0.6-0.6h-7C46.8,21.9,46.5,22.2,46.5,22.5z"
      />
      <path
        fill="#ffeb3b"
        d="M19.6,32.9c0.2,0.2,0.2,0.6-0.1,0.8l-5.3,4.5c-0.2,0.2-0.6,0.2-0.8-0.1s-0.2-0.6,0.1-0.8l5.3-4.5 C19.1,32.6,19.4,32.6,19.6,32.9z"
      />
      <path
        fill="#ffeb3b"
        d="M40.4,12.1c0.2,0.2,0.6,0.3,0.8,0.1l5.3-4.5c0.2-0.2,0.3-0.6,0.1-0.8s-0.6-0.3-0.8-0.1l-5.3,4.5 C40.2,11.6,40.2,11.9,40.4,12.1z"
      />
      <path
        fill="#ffeb3b"
        d="M19.6,12.1c0.2-0.2,0.2-0.6-0.1-0.8l-5.3-4.5c-0.2-0.2-0.6-0.2-0.8,0.1s-0.2,0.6,0.1,0.8l5.3,4.5 C19.1,12.4,19.4,12.4,19.6,12.1z"
      />
      <path
        fill="#ffeb3b"
        d="M40.4,32.9c0.2-0.2,0.6-0.2,0.8-0.1l5.3,4.5c0.2,0.2,0.2,0.6-0.1,0.8s-0.6,0.2-0.8-0.1l-5.3-4.5 C40.2,33.4,40.2,33,40.4,32.9z"
      />
      <!-- Animation -->
      <animate
        attributeType="CSS"
        attributeName="opacity"
        dur="1.5s"
        keyTimes="0;0.5;1"
        repeatCount="indefinite"
        values="1;0.6;1"
        calcMode="linear"
      />
    </g>
  </g>
</svg>
